<?xml version="1.0" encoding="UTF-8" standalone="no"?>
<!-- Created with Inkscape (http://www.inkscape.org/) -->

<svg
   xmlns:dc="http://purl.org/dc/elements/1.1/"
   xmlns:cc="http://creativecommons.org/ns#"
   xmlns:rdf="http://www.w3.org/1999/02/22-rdf-syntax-ns#"
   xmlns:svg="http://www.w3.org/2000/svg"
   xmlns="http://www.w3.org/2000/svg"
   xmlns:sodipodi="http://sodipodi.sourceforge.net/DTD/sodipodi-0.dtd"
   xmlns:inkscape="http://www.inkscape.org/namespaces/inkscape"
   width="177.3083mm"
   height="110mm"
   viewBox="0 0 628.25777 389.76378"
   id="svg2"
   version="1.1"
   inkscape:version="0.91 r13725"
   sodipodi:docname="front-page-icons-04.svg">
  <defs
     id="defs4" />
  <sodipodi:namedview
     id="base"
     pagecolor="#ffffff"
     bordercolor="#666666"
     borderopacity="1.0"
     inkscape:pageopacity="0.0"
     inkscape:pageshadow="2"
     inkscape:zoom="1.2773671"
     inkscape:cx="334.26475"
     inkscape:cy="130.52597"
     inkscape:document-units="px"
     inkscape:current-layer="layer1"
     showgrid="false"
     inkscape:window-width="1440"
     inkscape:window-height="809"
     inkscape:window-x="0"
     inkscape:window-y="0"
     inkscape:window-maximized="0"
     fit-margin-top="0"
     fit-margin-left="0"
     fit-margin-right="0"
     fit-margin-bottom="0" />
  <metadata
     id="metadata7">
    <rdf:RDF>
      <cc:Work
         rdf:about="">
        <dc:format>image/svg+xml</dc:format>
        <dc:type
           rdf:resource="http://purl.org/dc/dcmitype/StillImage" />
        <dc:title></dc:title>
      </cc:Work>
    </rdf:RDF>
  </metadata>
  <g
     inkscape:label="Layer 1"
     inkscape:groupmode="layer"
     id="layer1"
     transform="translate(-57.409813,36.23065)">
    <g
       transform="matrix(1,0,0.17632698,1,-13.983745,-153.01346)"
       id="g4220">
      <rect
         style="opacity:1;fill:#ff0000;fill-opacity:1;stroke:none;stroke-width:5;stroke-miterlimit:4;stroke-dasharray:none;stroke-dashoffset:0;stroke-opacity:1"
         id="rect4222"
         width="141.60457"
         height="195"
         x="51.492573"
         y="117.30392" />
      <rect
         y="117.30392"
         x="196.608"
         height="95.963425"
         width="286"
         id="rect4224"
         style="opacity:1;fill:#ffff00;fill-opacity:1;stroke:none;stroke-width:5;stroke-miterlimit:4;stroke-dasharray:none;stroke-dashoffset:0;stroke-opacity:1" />
      <rect
         y="117.30392"
         x="486.83884"
         height="95.963425"
         width="141.60457"
         id="rect4228"
         style="opacity:1;fill:#000000;fill-opacity:1;stroke:none;stroke-width:5;stroke-miterlimit:4;stroke-dasharray:none;stroke-dashoffset:0;stroke-opacity:1" />
      <rect
         style="opacity:1;fill:#000000;fill-opacity:1;stroke:none;stroke-width:5;stroke-miterlimit:4;stroke-dasharray:none;stroke-dashoffset:0;stroke-opacity:1"
         id="rect4232"
         width="141.60457"
         height="95.963425"
         x="196.608"
         y="217.36334" />
      <rect
         y="217.36334"
         x="341.72342"
         height="195"
         width="286"
         id="rect4234"
         style="opacity:1;fill:#00ff00;fill-opacity:1;stroke:none;stroke-width:5;stroke-miterlimit:4;stroke-dasharray:none;stroke-dashoffset:0;stroke-opacity:1" />
      <rect
         style="opacity:1;fill:#0000ff;fill-opacity:1;stroke:none;stroke-width:5;stroke-miterlimit:4;stroke-dasharray:none;stroke-dashoffset:0;stroke-opacity:1"
         id="rect4238"
         width="286"
         height="95.963425"
         x="51.492573"
         y="317.42279" />
    </g>
    <rect
       y="202.03889"
       x="482.31439"
       height="141.55641"
       width="87.997192"
       id="rect4340"
       style="opacity:1;fill:#000000;fill-opacity:1;stroke:none;stroke-width:15.44253445;stroke-miterlimit:4;stroke-dasharray:none;stroke-dashoffset:0;stroke-opacity:1" />
    <rect
       style="opacity:1;fill:#ff711c;fill-opacity:1;stroke:#000000;stroke-width:15.44253445;stroke-miterlimit:4;stroke-dasharray:none;stroke-dashoffset:0;stroke-opacity:1"
       id="rect3505"
       width="228.12918"
       height="136.07639"
       x="404.92267"
       y="220.37041"
       transform="matrix(1,0,-0.33135113,0.94350751,0,0)" />
    <g
       id="g4564"
       transform="matrix(-0.13674268,0.35191527,-0.36701355,-0.14260937,355.33319,206.58743)">
      <path
         id="path4566"
         style="fill:#000000"
         d="m 244.279,91.662 c -4.198,0 -8.195,0.876 -11.825,2.45 -4.413,-11.152 -15.238,-19.058 -27.869,-19.058 -4.692,0 -9.136,1.092 -13.094,3.034 -5.009,-9.657 -15.048,-16.27 -26.598,-16.27 -3.395,0 -6.655,0.579 -9.701,1.632 l 0,-33.249 C 155.193,13.549 141.738,0 125.198,0 108.66,0 95.206,13.549 95.206,30.201 l 0,119.643 -21.602,-24.714 c -0.151,-0.169 -0.305,-0.335 -0.465,-0.494 -5.672,-5.676 -13.221,-8.823 -21.256,-8.862 -0.052,0 -0.101,0 -0.153,0 -8.016,0 -15.521,3.095 -21.146,8.724 -9.918,9.921 -10.467,24.647 -1.502,40.408 11.605,20.39 24.22,39.616 35.351,56.581 8.134,12.398 15.818,24.108 21.435,33.79 4.871,8.402 17.801,35.651 17.933,35.926 1.678,3.541 5.247,5.798 9.163,5.798 l 128.27,0 c 4.407,0 8.308,-2.843 9.659,-7.035 2.392,-7.439 23.379,-73.398 23.379,-98.871 l 0,-69.229 C 274.27,105.21 260.817,91.662 244.279,91.662 Z"
         inkscape:connector-curvature="0" />
      <path
         id="path4568"
         style="fill:#ffffff"
         d="m 234.579,121.865 c 0,-5.468 4.352,-9.916 9.7,-9.916 5.351,0 9.703,4.448 9.703,9.916 l 0,69.229 c 0,16.928 -13.01,62.437 -20.189,85.618 l -114.432,0 C 115.155,267.96 107.272,251.748 103.417,245.099 97.52,234.931 89.687,222.994 81.395,210.355 70.429,193.645 58.002,174.703 46.714,154.873 c -2.946,-5.181 -5.646,-12.166 -1.78,-16.032 1.803,-1.807 4.231,-2.751 6.851,-2.779 2.557,0.013 4.962,0.977 6.805,2.721 l 39.124,44.755 c 2.78,3.183 7.248,4.306 11.202,2.821 3.958,-1.486 6.579,-5.271 6.579,-9.497 l 0,-146.661 c 0,-5.467 4.353,-9.913 9.704,-9.913 5.352,0 9.706,4.446 9.706,9.913 l 0,94.711 c 0,5.602 4.543,10.144 10.144,10.144 5.601,0 10.144,-4.542 10.144,-10.144 l 0,-32.896 c 0,-5.464 4.352,-9.909 9.701,-9.909 5.351,0 9.703,4.445 9.703,9.909 l 0,46.127 c 0,5.605 4.542,10.145 10.143,10.145 5.602,0 10.145,-4.539 10.145,-10.145 l 0,-32.888 c 0,-5.467 4.352,-9.914 9.701,-9.914 5.352,0 9.706,4.447 9.706,9.914 l 0,46.13 c 0,5.601 4.542,10.145 10.144,10.145 5.603,0 10.145,-4.544 10.145,-10.145 l 0,-29.52 z"
         inkscape:connector-curvature="0" />
    </g>
  </g>
</svg>
